<?xml version="1.0" standalone="no"?>
<!DOCTYPE svg PUBLIC "-//W3C//DTD SVG 20010904//EN"
 "http://www.w3.org/TR/2001/REC-SVG-20010904/DTD/svg10.dtd">
<svg version="1.0" xmlns="http://www.w3.org/2000/svg"
 width="360.000000pt" height="397.000000pt" viewBox="0 0 360.000000 397.000000"
 preserveAspectRatio="xMidYMid meet">

<g transform="translate(0.000000,397.000000) scale(0.100000,-0.100000)"
fill="#000000" stroke="none">
<path d="M2094 3744 c-19 -15 -19 -16 1 -9 45 15 82 15 125 1 25 -9 32 -13 17
-10 -19 3 -26 1 -22 -6 3 -5 12 -10 20 -10 7 0 15 -7 19 -15 4 -12 25 -15 101
-15 64 0 94 3 90 10 -17 27 121 -26 145 -55 11 -14 8 -13 -16 4 -17 12 -51 24
-75 27 l-44 4 47 -13 c48 -14 78 -32 78 -49 0 -5 -7 -5 -17 1 -26 13 -170 44
-185 39 -7 -3 21 -15 62 -27 41 -12 99 -36 129 -53 60 -33 92 -26 45 11 l-27
21 27 0 c38 0 87 -23 130 -60 41 -36 42 -51 2 -24 -15 9 -29 14 -32 11 -3 -2
10 -14 29 -26 18 -11 42 -31 53 -43 l19 -23 -23 19 c-42 36 -34 7 11 -41 71
-75 108 -127 77 -108 -5 3 -10 2 -10 -4 0 -5 5 -13 10 -16 6 -3 10 -11 10 -17
0 -5 -9 0 -21 13 l-20 24 11 -23 c7 -13 9 -26 6 -29 -3 -3 -15 15 -26 41 -47
111 -260 275 -387 299 -51 10 -39 -6 25 -31 79 -32 209 -121 264 -179 45 -49
81 -102 59 -89 -14 9 -14 1 -1 -27 7 -14 3 -12 -12 7 -33 43 -81 93 -72 77 5
-11 3 -13 -9 -8 -26 10 -20 -6 14 -39 35 -33 99 -121 79 -109 -8 5 -11 3 -8
-6 3 -8 10 -13 15 -12 5 1 9 -6 9 -15 1 -9 5 -26 9 -37 5 -11 -8 4 -28 34 -41
59 -45 70 -19 50 14 -11 13 -9 -2 9 -11 12 -21 20 -24 17 -3 -3 -24 11 -48 30
-64 53 -64 42 0 -25 123 -129 162 -328 97 -505 -12 -33 -26 -64 -31 -69 -5 -5
2 22 15 60 17 48 24 88 24 134 l-2 65 -8 -69 c-5 -37 -14 -75 -20 -85 -9 -14
-10 -13 -4 4 4 11 8 56 10 100 l4 80 -8 -78 c-5 -43 -12 -81 -16 -85 -4 -4 -4
20 -1 53 5 54 4 56 -5 20 -23 -93 -31 -117 -35 -112 -2 2 0 16 6 31 11 30 16
173 6 183 -3 4 -6 -18 -6 -48 0 -87 -52 -220 -77 -195 -3 3 1 14 10 24 16 18
47 84 47 99 -1 4 -12 -12 -26 -37 -14 -25 -22 -36 -18 -25 4 11 15 43 25 70
17 48 19 137 3 188 -3 9 -1 17 5 17 6 0 11 5 11 11 0 5 -4 8 -9 4 -6 -3 -19
16 -31 41 -27 63 -33 53 -10 -16 14 -40 17 -72 14 -115 -5 -57 -32 -151 -40
-142 -2 2 3 20 11 40 8 20 14 56 13 79 l-1 43 -4 -37 c-6 -55 -23 -46 -23 12
0 27 -5 73 -11 102 -15 72 -71 169 -88 153 -2 -3 2 -13 10 -22 17 -20 53 -132
46 -140 -3 -2 -8 9 -12 26 -4 17 -11 33 -16 36 -5 4 -5 -5 1 -20 13 -34 13
-55 0 -35 -7 11 -10 -4 -11 -50 0 -36 -4 -74 -8 -84 -13 -35 -31 38 -31 128 0
59 -6 93 -20 124 -23 52 -140 172 -167 172 -14 0 -11 -6 15 -26 18 -14 30 -29
27 -34 -3 -5 5 -21 18 -37 12 -15 29 -37 37 -48 14 -18 14 -19 -2 -7 -12 9
-17 10 -20 1 -2 -6 -37 26 -78 72 -86 95 -169 159 -237 185 -27 10 -63 30 -80
45 -18 15 -49 33 -70 38 -47 13 -170 14 -178 2 -3 -5 -19 -12 -35 -16 -39 -9
-39 -28 0 -21 100 19 97 19 70 28 -19 6 -16 7 15 4 22 -2 63 -14 90 -27 l50
-23 -40 -6 c-37 -5 -35 -6 30 -13 110 -11 135 -22 205 -88 50 -47 54 -53 18
-25 -50 39 -138 86 -159 86 -8 0 12 -15 43 -33 63 -35 152 -106 144 -114 -3
-3 -19 5 -36 17 -17 12 -33 20 -36 18 -6 -6 72 -58 86 -58 6 0 8 -4 5 -10 -6
-10 17 -17 75 -23 26 -3 22 -4 -16 -5 -55 -2 -87 14 -170 87 -23 20 -72 52
-110 71 -58 29 -80 35 -144 37 -52 2 -69 0 -55 -6 11 -5 36 -10 56 -10 23 -1
39 -7 43 -16 3 -8 12 -15 20 -15 8 0 18 -5 22 -12 5 -7 3 -8 -6 -3 -9 6 -11 4
-6 -4 5 -7 15 -10 24 -6 9 3 13 3 9 -1 -4 -4 0 -16 10 -26 9 -10 12 -18 8 -18
-5 0 2 -11 15 -25 33 -36 19 -31 -49 15 -120 82 -287 131 -379 112 l-47 -10
70 -1 c124 -2 241 -42 310 -106 l40 -37 -35 23 -35 22 30 -33 30 -34 -55 39
-55 39 33 -36 c45 -48 26 -56 -40 -19 -121 67 -242 78 -380 35 -54 -17 -84
-22 -86 -15 -2 7 -13 6 -33 -4 -36 -19 -38 -28 -3 -15 32 13 37 12 29 0 -8
-13 -12 -13 70 10 49 14 71 17 76 8 4 -7 26 -9 58 -6 72 7 55 -3 -31 -18 l-73
-13 84 4 c46 3 81 1 77 -3 -4 -4 -94 -10 -199 -13 -161 -5 -203 -9 -259 -28
-38 -12 -68 -26 -68 -31 0 -16 29 -12 113 15 46 15 99 25 130 24 45 -1 48 -2
22 -9 -16 -4 -48 -8 -70 -9 -22 -1 -62 -13 -90 -26 -44 -22 -42 -27 5 -13 8 3
12 3 7 1 -4 -3 -5 -8 -2 -13 3 -4 -6 -11 -20 -14 -14 -4 -25 -11 -25 -16 0 -6
-15 -10 -32 -10 -47 0 -104 -18 -119 -37 -13 -15 -11 -16 16 -10 17 3 24 4 17
1 -6 -3 -10 -10 -7 -15 3 -4 -6 -11 -20 -15 -14 -3 -24 -9 -21 -12 3 -3 -2
-11 -12 -18 -13 -9 -19 -9 -25 -1 -6 9 -10 9 -14 0 -10 -26 -39 -54 -56 -57
-10 -1 -22 -9 -27 -16 -33 -53 -5 71 32 144 11 21 14 35 8 31 -7 -4 -22 -29
-35 -56 -12 -27 -25 -46 -28 -43 -3 3 -8 -3 -11 -14 -4 -11 -15 -29 -25 -41
-17 -19 -19 -20 -25 -5 -12 32 108 219 191 295 15 15 42 34 58 44 22 13 19 8
-13 -20 -42 -37 -108 -123 -100 -130 2 -3 21 18 42 45 65 85 200 175 369 247
86 37 241 87 301 99 38 7 50 24 17 24 -10 0 -65 -16 -121 -36 -65 -22 -106
-32 -112 -26 -10 10 -159 -59 -268 -123 l-55 -32 -458 3 c-251 2 -457 1 -457
-1 0 -2 23 -42 50 -89 28 -47 50 -87 50 -90 0 -3 -29 -6 -65 -6 -36 0 -65 -2
-65 -5 0 -10 1685 -2925 1690 -2925 3 0 178 301 389 668 212 367 591 1024 843
1460 252 437 458 795 458 797 0 2 -31 5 -70 7 l-69 3 49 85 c27 47 50 88 50
91 0 3 -124 6 -275 6 -283 0 -305 3 -305 41 0 27 -59 117 -108 164 -32 30 -64
50 -93 58 -25 7 -59 26 -79 45 -19 19 -55 42 -80 51 -49 18 -168 23 -215 10
-27 -8 -28 -9 -10 -17 l20 -9 -20 3 c-11 2 -19 9 -17 15 1 7 3 17 5 24 5 27
-147 38 -179 12z m289 -41 c-13 -2 -35 -2 -50 0 -16 2 -5 4 22 4 28 0 40 -2
28 -4z m-188 -323 c10 -11 16 -20 13 -20 -3 0 -13 9 -23 20 -10 11 -16 20 -13
20 3 0 13 -9 23 -20z m-640 -70 c-11 -5 -33 -9 -50 -9 -26 0 -27 2 -10 9 11 5
34 9 50 9 26 0 27 -2 10 -9z m845 -25 c13 -14 21 -25 18 -25 -2 0 -15 11 -28
25 -13 14 -21 25 -18 25 2 0 15 -11 28 -25z m-1565 -110 c-43 -47 -81 -85 -85
-85 -22 0 -126 -110 -146 -155 -13 -27 -33 -61 -44 -74 -18 -21 -23 -22 -31
-10 -12 20 -11 26 7 33 21 8 7 28 -17 24 -14 -2 -39 33 -119 170 -55 94 -100
174 -100 177 0 3 138 5 306 5 l306 0 -77 -85z m2455 80 c0 -3 -160 -283 -356
-623 -197 -339 -418 -723 -492 -852 -74 -129 -137 -237 -140 -240 -7 -9 -73
73 -99 125 -35 69 -83 209 -83 244 0 28 1 28 66 34 46 3 72 11 87 25 16 14 29
17 47 12 20 -5 119 -6 152 -1 14 2 38 60 32 75 -4 10 -1 16 10 16 8 0 18 11
22 25 17 69 -33 148 -120 189 -97 46 -211 53 -340 20 l-29 -7 7 51 c17 128 80
260 175 363 63 70 171 160 235 199 37 22 39 23 49 4 6 -10 27 -36 46 -57 67
-70 69 -73 67 -117 0 -27 4 -45 12 -48 6 -2 12 -14 12 -26 0 -110 85 -127 152
-31 46 67 61 134 56 254 -4 78 -1 115 9 140 9 21 12 48 8 71 -6 36 -5 38 25
45 40 9 64 46 56 85 l-5 30 169 0 c94 0 170 -2 170 -5z m-1676 -37 c-30 -50
-119 -148 -135 -148 -11 0 -19 3 -19 6 0 11 85 123 93 124 4 0 -4 -20 -19 -45
-14 -25 -24 -45 -21 -45 2 0 25 27 51 60 43 55 69 79 50 48z m12 -52 c-39 -47
-47 -67 -19 -45 10 8 3 -5 -16 -28 -32 -43 -59 -57 -47 -27 8 21 110 153 115
148 2 -2 -13 -23 -33 -48z m-218 -26 c-50 -72 -70 -80 -32 -12 36 63 44 72 60
72 8 0 -4 -24 -28 -60z m59 -2 c-43 -60 -77 -89 -64 -55 12 33 80 117 94 117
9 0 -1 -21 -30 -62z m266 48 c-4 -7 -39 -47 -77 -87 -39 -41 -60 -59 -47 -42
24 36 120 143 128 143 2 0 0 -6 -4 -14z m251 -80 c-42 -47 -110 -129 -150
-182 -77 -102 -208 -324 -197 -333 3 -3 8 -1 10 5 22 63 274 402 329 444 14
11 13 8 -3 -11 -13 -14 -23 -29 -23 -34 0 -5 37 27 83 71 45 44 93 88 107 99
14 10 -14 -19 -61 -66 -74 -72 -171 -179 -228 -254 -9 -11 47 43 124 120 129
129 219 205 230 193 2 -2 -23 -24 -56 -48 -149 -108 -323 -325 -413 -515 -60
-126 -67 -158 -11 -51 26 50 74 131 108 180 62 91 243 290 256 281 4 -2 30 15
59 38 28 23 66 50 84 60 32 17 32 17 8 0 -142 -103 -278 -242 -372 -381 -59
-87 -136 -244 -143 -293 -5 -32 -5 -33 6 -9 78 167 107 219 160 291 75 100
251 277 337 337 34 24 62 41 62 39 0 -2 -27 -27 -61 -55 -71 -61 -70 -66 3
-16 52 36 53 36 13 3 -88 -73 -240 -228 -297 -303 -68 -91 -134 -215 -143
-272 -5 -34 0 -27 42 51 76 143 128 212 247 331 103 102 207 187 299 243 63
38 41 17 -32 -32 -217 -144 -402 -347 -461 -505 -37 -97 -16 -90 38 13 83 160
199 291 372 416 91 66 79 47 -21 -31 -44 -35 -108 -93 -141 -129 -67 -73 -161
-201 -153 -209 3 -3 6 -3 8 -1 81 117 235 269 352 347 44 29 67 43 51 30 -185
-145 -267 -230 -351 -362 -43 -68 -94 -175 -93 -197 2 -34 -3 -49 -16 -49 -14
0 -46 -67 -46 -95 0 -8 -26 -32 -57 -54 -79 -53 -172 -150 -203 -210 -31 -60
-44 -51 -46 32 -1 42 2 55 9 48 24 -24 30 -9 24 62 -3 39 -2 81 2 92 8 21 9
21 -46 84 l-37 43 22 61 c12 33 20 62 18 65 -3 2 -16 -18 -30 -45 -30 -58 -32
-45 -7 47 21 74 15 97 -8 33 -30 -83 -32 -86 -41 -77 -7 7 -3 30 9 67 25 71
17 74 -14 5 -13 -29 -24 -45 -24 -36 -1 23 45 149 81 223 16 33 22 51 13 40
-24 -30 -59 -101 -86 -177 -13 -38 -27 -68 -31 -68 -12 0 -10 11 12 74 10 31
15 54 10 51 -5 -3 -16 -28 -25 -55 -9 -28 -19 -50 -21 -50 -3 0 -16 7 -29 16
l-24 16 19 49 c27 66 77 166 89 173 5 3 -9 -39 -31 -95 -21 -55 -38 -105 -36
-111 3 -7 15 15 28 48 34 85 80 165 99 171 9 3 26 9 37 15 12 6 31 7 42 3 12
-3 31 -1 43 5 12 7 20 8 18 3 -2 -4 -19 -36 -37 -70 -18 -35 -29 -63 -25 -63
5 0 19 20 32 45 31 58 121 181 194 265 47 54 204 200 215 200 2 0 -31 -38 -74
-84z m-643 24 c-14 -27 -30 -50 -34 -50 -5 0 4 23 19 50 15 28 30 50 35 50 4
0 -5 -22 -20 -50z m-56 -11 c-13 -24 -25 -40 -25 -35 0 11 43 87 47 82 2 -2
-8 -23 -22 -47z m485 48 c0 -2 -15 -16 -32 -33 l-33 -29 29 33 c28 30 36 37
36 29z m-1515 -26 c3 -6 -15 -11 -40 -13 l-45 -3 380 -659 c227 -394 378 -666
375 -674 -5 -13 -8 -12 -19 4 -22 33 -776 1343 -776 1349 0 9 119 5 125 -4z
m1581 -61 c-69 -74 -123 -147 -114 -156 3 -3 26 21 51 53 49 64 126 138 134
129 3 -3 -26 -39 -64 -79 -38 -41 -84 -98 -103 -126 -19 -28 -38 -51 -41 -51
-4 0 -10 17 -14 38 -3 20 -13 47 -20 59 -13 20 -9 27 61 107 42 47 79 86 84
86 14 0 2 -41 -18 -64 -47 -52 -28 -45 29 12 87 84 97 79 15 -8z m1634 66 c0
-2 -174 -305 -386 -672 -212 -368 -389 -675 -393 -682 -6 -11 -9 -11 -19 0 -8
10 76 162 365 663 206 358 377 656 380 663 4 8 -8 12 -42 12 -28 0 -44 4 -40
10 6 9 135 15 135 6z m-1060 -11 c0 -2 -28 -23 -62 -46 -35 -23 -58 -36 -52
-30 10 11 105 79 112 80 1 1 2 -1 2 -4z m-1775 -650 c999 -1732 1151 -1994
1160 -1997 5 -1 23 22 40 52 17 30 207 359 421 730 215 371 540 935 723 1253
318 550 335 577 362 577 16 0 29 -3 29 -6 0 -3 -237 -415 -526 -917 -290 -502
-639 -1108 -777 -1347 -138 -239 -255 -441 -262 -448 -9 -10 -49 52 -192 300
-100 172 -281 486 -403 698 -122 212 -307 531 -410 710 -448 776 -558 966
-569 988 -12 22 -11 23 20 20 31 -3 41 -18 384 -613z m113 543 c-17 -35 -40
-88 -50 -118 l-18 -55 6 49 c3 27 8 56 11 65 3 11 0 10 -12 -4 -9 -11 -23 -44
-31 -73 -18 -61 -27 -61 -26 -1 1 49 35 103 102 160 25 21 46 39 48 39 1 0
-12 -28 -30 -62z m927 20 c-21 -24 -42 -47 -46 -52 -6 -6 -9 -6 -9 0 0 15 69
94 82 94 6 0 -7 -19 -27 -42z m-172 -14 c26 -9 45 -19 42 -24 -3 -4 5 -10 17
-13 12 -4 20 -9 17 -12 -3 -3 -22 1 -41 9 -19 8 -59 17 -89 21 -54 6 -54 5 19
-15 80 -21 127 -46 158 -82 l19 -23 -21 18 c-37 31 -37 18 0 -23 20 -22 36
-46 36 -52 0 -7 -7 -3 -15 9 -8 12 -34 38 -58 58 -30 27 -36 35 -19 30 12 -3
22 -4 22 -1 0 7 -49 32 -80 40 -19 5 -16 2 10 -13 19 -11 31 -20 25 -21 -5 0
6 -14 25 -30 19 -16 30 -30 23 -30 -6 0 -15 5 -18 10 -3 6 -11 10 -17 10 -6 0
-1 -11 12 -25 35 -37 19 -30 -45 20 -57 44 -69 48 -173 60 -59 6 -65 -8 -9
-20 17 -4 38 -12 46 -18 7 -6 19 -12 26 -13 15 -2 123 -74 111 -74 -5 0 -25
10 -45 22 l-36 21 25 -28 c14 -16 17 -24 8 -16 -9 7 -21 11 -25 8 -4 -3 -39 1
-78 9 -93 18 -198 17 -270 -1 -61 -16 -165 -76 -165 -96 0 -6 12 -2 28 9 45
32 88 51 149 67 49 13 69 14 128 3 39 -6 74 -11 78 -10 5 2 6 -2 3 -7 -4 -5 4
-12 16 -15 13 -3 -4 -2 -37 2 -33 3 -83 6 -112 5 -52 -1 -148 -27 -158 -43 -3
-4 23 1 58 12 72 23 153 20 189 -7 19 -15 20 -16 3 -10 -11 4 -47 10 -81 13
-47 3 -71 -1 -112 -18 -28 -12 -57 -28 -63 -36 -16 -19 -5 -18 41 6 22 11 61
23 87 25 35 4 42 3 28 -4 -19 -9 -18 -10 5 -11 25 -1 25 -1 -5 -15 l-30 -14
30 6 c55 11 21 -5 -80 -37 -113 -37 -239 -96 -230 -110 3 -5 0 -12 -6 -16 -8
-4 -9 -3 -5 4 15 25 -11 10 -61 -33 -46 -41 -53 -44 -62 -28 -7 14 -4 26 15
50 27 36 22 43 -11 16 -12 -10 7 9 42 43 35 33 63 63 63 67 0 20 -32 0 -85
-53 l-59 -60 -23 37 c-13 21 -23 41 -23 45 0 12 70 86 103 110 l29 21 -12 -24
c-7 -13 -30 -43 -51 -66 -22 -24 -39 -48 -39 -55 0 -7 9 1 20 18 11 17 49 52
85 79 36 26 65 49 65 50 0 2 3 12 6 22 5 16 4 16 -10 -1 -10 -13 -16 -15 -16
-6 0 7 18 29 40 48 49 41 74 86 66 118 -5 20 -1 26 31 39 161 67 405 90 526
49z m1094 -86 c-2 -18 -4 -4 -4 32 0 36 2 50 4 33 2 -18 2 -48 0 -65z m-31
-56 c-11 -10 -12 3 -7 53 l6 50 3 -49 c2 -26 1 -51 -2 -54z m-1816 23 c0 -5
-5 -3 -10 5 -8 13 -10 12 -10 -4 0 -11 -3 -17 -6 -13 -3 3 -3 15 1 28 6 17 9
19 16 8 5 -8 9 -18 9 -24z m154 -23 c-12 -15 -43 -43 -70 -62 -27 -19 -81 -67
-121 -106 -44 -43 -74 -66 -77 -59 -2 7 2 22 10 34 16 22 6 29 -14 9 -29 -29
-9 12 23 46 50 55 43 58 -10 6 -25 -24 -45 -39 -45 -33 0 21 110 120 168 151
62 33 73 37 71 25 -4 -23 4 -24 26 -3 34 32 32 13 -2 -22 -15 -15 -22 -28 -16
-28 14 0 63 57 63 72 0 6 3 8 7 5 4 -4 -2 -20 -13 -35z m1775 -15 c-5 -20 -14
-39 -19 -42 -5 -3 -2 15 7 40 18 54 27 55 12 2z m-1045 -46 c-5 -6 -33 31 -33
44 -1 6 8 -1 19 -15 10 -14 17 -27 14 -29z m-804 -51 c0 -5 -5 -10 -11 -10 -5
0 -7 5 -4 10 3 6 8 10 11 10 2 0 4 -4 4 -10z m563 -123 c-20 -53 -40 -97 -45
-97 -12 0 -9 22 7 50 17 29 19 44 5 35 -6 -3 -7 1 -4 9 3 9 11 13 16 10 6 -4
8 1 4 13 -4 12 3 29 21 50 15 18 28 31 30 30 1 -1 -15 -46 -34 -100z m771 46
c-58 -73 -77 -90 -39 -38 28 40 76 95 82 95 2 0 -18 -26 -43 -57z m-838 -68
c-13 -34 -31 -61 -40 -63 -14 -3 -15 2 -10 25 9 35 33 93 39 93 2 0 -1 -14 -7
-31 -6 -16 -8 -33 -4 -36 3 -4 6 -2 6 4 0 19 33 88 37 78 2 -6 -8 -38 -21 -70z
m-106 51 c0 -5 -104 -36 -117 -35 -8 1 95 37 110 38 4 1 7 -1 7 -3z m23 -60
c-10 -13 -19 -23 -21 -21 -7 6 19 45 29 45 5 0 2 -11 -8 -24z m-46 -38 c-3 -8
-6 -5 -6 6 -1 11 2 17 5 13 3 -3 4 -12 1 -19z m864 -32 c-12 -18 -35 -62 -51
-97 -23 -51 -29 -57 -24 -30 6 40 27 84 63 128 33 42 38 42 12 -1z m-973 5
l47 -8 -27 -13 c-16 -7 -28 -17 -28 -22 0 -5 10 -2 22 6 36 25 44 18 15 -12
-30 -31 -37 -54 -9 -29 31 28 126 67 162 66 33 -1 32 -2 -15 -13 -42 -10 -141
-54 -125 -56 3 0 29 9 58 20 29 11 73 19 100 18 l47 -1 -45 -7 -45 -7 55 -3
c51 -2 53 -3 20 -10 l-35 -7 30 -3 c29 -2 28 -2 -9 -11 -66 -16 -54 -20 40
-14 63 3 82 2 64 -5 -21 -8 -19 -9 14 -5 36 4 37 3 20 -11 -18 -14 -18 -15 6
-9 18 5 21 4 11 -3 -12 -9 -12 -11 0 -14 8 -3 2 -3 -13 -1 -15 3 -35 0 -44 -5
-13 -7 -9 -11 22 -16 58 -11 130 -52 155 -88 l24 -33 -40 30 c-21 17 -36 25
-32 19 7 -13 -122 35 -144 53 -73 58 -216 80 -325 48 -71 -21 -127 -48 -176
-87 -42 -33 -50 -28 -15 11 l22 25 -29 -18 c-34 -22 -54 -9 -37 23 7 12 8 21
2 21 -5 0 -11 -5 -13 -12 -3 -9 -6 -9 -11 -1 -4 7 13 36 38 67 25 31 45 59 45
63 0 4 -25 -17 -55 -47 -30 -30 -55 -48 -55 -40 0 21 85 97 140 125 34 17 59
23 78 19 22 -4 24 -3 12 6 -12 9 -11 10 8 5 13 -4 45 -10 70 -14z m-260 -48
c-14 -16 -31 -38 -37 -50 -12 -24 -31 -31 -31 -11 0 10 78 88 89 88 2 0 -7
-12 -21 -27z m397 -115 c21 -1 32 -5 27 -10 -14 -14 -75 -5 -80 11 -3 8 0 11
6 7 6 -4 27 -7 47 -8z m75 -28 c18 -12 2 -12 -25 0 -13 6 -15 9 -5 9 8 0 22
-4 30 -9z m-280 -11 c12 -9 12 -10 -4 -5 -20 7 -92 -31 -117 -60 -8 -10 5 -5
29 11 27 18 75 35 130 46 101 22 141 22 197 5 l40 -13 -38 -8 c-20 -4 -39 -11
-42 -15 -3 -4 12 -4 33 1 93 21 216 1 278 -46 35 -27 74 -80 74 -100 -1 -5 -9
6 -19 25 -11 19 -29 44 -42 55 l-23 20 17 -25 c33 -48 58 -102 53 -113 -2 -7
-5 -4 -5 5 -2 29 -106 128 -135 128 -5 0 9 -16 33 -36 23 -20 40 -42 37 -49
-2 -7 3 -23 12 -36 15 -22 15 -23 -1 -10 -23 18 -22 6 3 -27 10 -15 22 -40 25
-57 l6 -30 -18 32 c-10 18 -22 32 -26 32 -5 0 -17 11 -28 25 -36 46 -115 95
-179 112 -68 17 -151 9 -224 -21 -51 -22 -44 -25 17 -9 57 15 170 18 202 4 13
-5 1 -7 -35 -5 -30 1 -43 1 -27 -2 23 -4 25 -6 13 -18 -7 -8 -34 -19 -60 -26
-25 -6 -51 -17 -57 -25 -11 -14 -10 -16 29 -26 8 -2 2 -10 -15 -18 -15 -8 -30
-18 -33 -21 -3 -3 -30 -11 -60 -17 l-55 -11 55 4 55 5 -50 -15 c-38 -11 -51
-11 -57 -2 -12 18 -10 25 10 30 11 3 9 5 -8 6 -20 1 -32 14 -58 61 l-32 59 25
17 c14 9 24 19 21 21 -2 3 -16 -3 -30 -12 -25 -17 -26 -17 -43 22 -10 21 -22
41 -28 45 -12 8 9 26 80 68 57 34 55 33 75 19z m1333 -89 c43 -14 77 -32 104
-58 22 -20 30 -30 19 -21 -45 35 -49 30 -11 -12 22 -24 30 -35 18 -25 -30 25
-29 11 2 -26 44 -52 27 -48 -30 6 -56 55 -166 121 -188 113 -7 -2 11 -15 38
-29 52 -27 150 -107 141 -116 -3 -2 4 -16 14 -30 33 -41 22 -48 -17 -11 l-37
34 32 -39 c17 -22 29 -42 27 -44 -3 -3 -14 7 -26 22 -26 33 -37 27 -14 -8 30
-45 4 -28 -56 37 -41 46 -75 71 -119 91 -137 62 -238 59 -384 -12 -5 -3 -6 0
-2 7 4 6 1 11 -6 11 -7 0 7 14 32 30 25 17 50 28 57 25 19 -7 107 26 93 35
-19 12 104 38 181 39 41 1 92 -7 132 -19z m-363 -34 c0 -2 -7 -7 -16 -10 -8
-3 -12 -2 -9 4 6 10 25 14 25 6z m224 -95 c49 -21 136 -87 136 -102 0 -5 -23
9 -51 31 -28 22 -56 40 -62 40 -7 0 -3 -7 8 -16 11 -8 20 -19 20 -24 0 -5 16
-23 35 -40 32 -29 25 -32 -10 -5 -22 16 -137 53 -192 60 -66 9 -62 -11 5 -22
31 -6 51 -14 50 -21 -2 -7 3 -13 10 -13 6 -1 -8 -5 -33 -9 -28 -4 -63 -2 -95
6 -89 24 -93 14 -5 -13 53 -16 110 -27 152 -27 36 -1 61 -4 55 -8 -21 -13 -90
-8 -167 12 -41 11 -109 23 -150 26 -66 5 -80 3 -119 -18 -51 -26 -88 -71 -55
-65 11 1 30 10 44 19 14 9 36 19 50 23 25 7 25 7 -6 -26 -40 -43 -78 -99 -72
-105 3 -2 17 14 33 36 25 36 85 90 100 90 4 0 -23 -33 -60 -72 -63 -70 -125
-173 -125 -207 0 -9 15 13 32 48 21 44 56 91 109 144 44 44 82 78 85 74 3 -3
-15 -24 -40 -47 -25 -24 -46 -46 -46 -51 0 -5 -20 -36 -44 -69 -47 -63 -86
-153 -86 -195 0 -14 -5 -25 -11 -25 -6 0 -8 17 -4 48 5 34 4 43 -4 32 -6 -8
-11 -28 -11 -45 0 -40 -19 -71 -21 -35 l-1 25 -7 -25 c-7 -23 -8 -23 -14 -5
-3 11 -9 45 -13 75 l-8 55 -7 -45 c-4 -25 -5 2 -2 60 3 58 9 106 13 108 4 1 5
14 2 27 -5 26 32 160 47 169 5 4 -2 -24 -15 -62 -28 -79 -34 -143 -7 -77 54
133 186 251 320 285 59 15 184 5 237 -19z m-912 -149 c-2 -65 1 -140 6 -168
10 -49 10 -48 11 32 0 44 4 84 9 88 4 4 12 42 17 84 8 60 14 77 28 80 15 3 17
-8 19 -120 1 -68 3 -98 5 -68 5 103 15 180 21 180 4 0 6 -66 4 -147 -2 -97 2
-173 11 -220 8 -40 10 -70 6 -67 -4 2 -13 30 -19 62 -12 61 -28 108 -29 82 0
-8 4 -34 8 -57 9 -44 2 -54 -19 -29 -6 8 -35 22 -63 32 -29 9 -56 20 -60 24
-15 13 -30 241 -18 253 8 8 11 -5 11 -43 1 -30 7 -84 15 -120 l13 -65 -1 100
c0 55 3 118 7 140 19 96 22 87 18 -53z m170 -48 c-4 -158 8 -271 48 -433 17
-68 29 -126 27 -127 -5 -5 -74 217 -86 276 -26 125 -24 426 3 417 8 -3 10 -43
8 -133z m63 57 c11 -14 14 -21 6 -16 -9 5 -12 3 -9 -6 3 -8 15 -13 27 -12 13
2 21 -3 21 -12 0 -8 7 -15 16 -15 11 0 13 -6 9 -19 -10 -32 -25 -133 -27 -181
l-1 -45 -7 55 c-6 48 -7 42 -8 -44 -1 -55 -4 -97 -6 -95 -9 9 -27 142 -28 205
-1 72 -15 86 -21 22 -2 -25 -4 -9 -5 37 -1 64 7 165 12 153 1 -2 10 -14 21
-27z m-316 -88 l-2 -108 -10 83 c-14 114 -31 106 -23 -10 4 -60 3 -86 -3 -73
-5 11 -10 36 -11 55 -1 31 -2 33 -10 13 -15 -37 -20 -27 -20 42 0 36 4 65 8
65 5 0 6 -14 4 -31 -3 -22 -1 -30 7 -25 6 4 11 20 11 35 0 23 26 56 48 60 1 1
1 -47 1 -106z m-99 -20 c0 -41 -3 -54 -10 -43 -11 17 -13 61 -4 84 11 28 14
18 14 -41z m960 -83 c16 -72 81 -208 115 -240 23 -21 25 -22 19 -5 -7 21 -7
21 41 -35 19 -21 21 -28 8 -16 -27 23 -30 11 -5 -17 12 -15 14 -21 5 -24 -7
-3 -13 -12 -13 -21 -1 -9 -10 5 -20 32 -35 90 -121 155 -235 178 -53 10 -53
11 -74 66 -20 52 -20 56 -5 73 10 11 20 19 24 19 3 0 12 -23 19 -50 7 -28 21
-60 32 -73 24 -29 24 -22 -6 57 -14 37 -25 72 -25 79 1 6 12 -16 25 -51 26
-67 60 -122 76 -122 5 0 2 14 -7 32 -23 44 -54 137 -54 162 0 32 16 6 29 -48
13 -52 41 -113 73 -159 31 -43 32 -25 4 32 -30 59 -56 152 -55 196 0 25 2 27
9 10 4 -11 13 -45 20 -75z m-251 -47 c-22 -38 -44 -84 -49 -103 -5 -20 -16
-44 -24 -55 -13 -18 -14 -14 -2 30 7 28 19 62 26 75 14 28 80 120 85 120 2 0
-14 -30 -36 -67z m841 6 c0 -6 -4 -7 -10 -4 -5 3 -10 11 -10 16 0 6 5 7 10 4
6 -3 10 -11 10 -16z m-1710 -13 c0 -3 -4 -8 -10 -11 -5 -3 -10 -1 -10 4 0 6 5
11 10 11 6 0 10 -2 10 -4z m941 -46 c15 -34 16 -40 3 -40 -17 0 -48 65 -38 81
8 14 14 7 35 -41z m-768 -255 c85 -148 268 -468 407 -710 138 -242 253 -441
254 -443 2 -1 186 316 409 705 224 390 411 715 417 723 7 11 12 12 20 4 8 -8
-63 -140 -265 -490 -153 -264 -338 -585 -412 -714 -75 -129 -142 -246 -150
-259 -14 -23 -17 -20 -97 120 -45 79 -236 411 -425 737 -188 326 -339 597
-335 603 3 6 10 7 14 2 4 -4 77 -129 163 -278z m187 265 c4 -7 13 -9 20 -5 9
6 11 4 6 -4 -5 -8 -3 -11 6 -9 7 2 15 -1 17 -7 5 -18 33 -45 42 -40 4 3 11 0
15 -6 5 -8 3 -9 -6 -4 -9 6 -11 -1 -6 -26 5 -28 4 -30 -4 -11 -11 26 -22 30
-13 5 4 -12 0 -11 -11 5 -23 30 -36 28 -36 -7 0 -20 14 -47 43 -83 52 -63 67
-90 67 -118 0 -28 -20 -16 -21 13 -1 17 -3 15 -8 -8 -7 -29 -7 -29 -15 14 -5
26 -20 56 -37 75 l-30 31 20 -35 c10 -19 22 -51 25 -70 l7 -35 -20 40 c-12 22
-18 29 -15 16 4 -16 3 -21 -5 -17 -6 4 -11 13 -11 20 0 7 -7 21 -15 32 -15 19
-15 19 -9 -1 3 -11 -8 4 -25 34 -35 61 -36 65 -18 56 6 -4 -1 5 -16 19 -15 14
-24 26 -20 26 16 0 74 -40 79 -55 4 -8 10 -15 15 -15 20 0 -13 41 -54 68 -47
31 -97 78 -97 92 0 12 2 12 58 1 23 -5 42 -5 42 0 0 4 -15 10 -32 13 -77 13
-79 15 -14 11 40 -2 72 -8 76 -15z m539 -32 c10 -30 9 -31 -4 -14 -8 11 -15
26 -15 33 0 22 8 14 19 -19z m-19 -31 c0 -5 -4 -5 -10 -2 -5 3 -10 14 -10 23
0 15 2 15 10 2 5 -8 10 -19 10 -23z m232 -42 c20 -10 39 -23 41 -30 3 -6 -18
0 -45 14 -31 15 -79 28 -122 32 l-71 7 80 -2 c52 -2 93 -9 117 -21z m-57 -25
c10 -4 -18 -5 -63 -2 -53 3 -82 1 -82 -6 0 -6 30 -10 73 -10 39 0 85 -5 100
-11 39 -15 47 -13 17 5 l-25 15 25 -7 c31 -9 77 -42 86 -63 3 -9 7 -29 9 -46
l2 -30 -11 28 c-5 15 -14 27 -18 27 -5 0 -4 -9 2 -19 5 -11 10 -30 10 -43 -1
-17 -5 -12 -15 17 -15 43 -47 75 -74 75 -9 0 -3 -8 17 -20 17 -11 32 -22 32
-25 0 -4 -10 1 -22 9 -36 26 -42 18 -9 -10 17 -14 31 -33 31 -41 0 -11 -6 -8
-20 8 l-20 24 15 -30 c19 -39 19 -58 -1 -23 -22 41 -62 58 -94 42 -14 -8 -19
-14 -12 -14 6 0 12 -7 12 -15 0 -8 -2 -15 -4 -15 -2 0 -23 7 -46 15 -103 36
-150 11 -181 -97 l-18 -63 0 45 c-1 25 3 60 8 78 5 17 6 32 2 32 -12 0 -31
-71 -32 -121 -2 -33 -3 -37 -6 -15 -4 23 -7 26 -15 15 -6 -10 -8 4 -5 44 3 41
1 55 -7 47 -6 -6 -11 -48 -11 -95 0 -46 -3 -78 -7 -72 -4 7 -8 29 -8 50 0 20
-5 37 -11 37 -7 0 -9 -13 -4 -38 3 -21 2 -49 -3 -62 -9 -24 -10 -23 -22 20
l-12 45 -14 -40 c-16 -48 -16 -45 -5 -45 5 0 12 8 14 18 4 13 5 13 6 -4 1 -18
-8 -24 -45 -33 -26 -7 -47 -11 -48 -9 -23 34 -43 78 -36 78 6 0 10 7 10 16 0
13 -3 14 -14 5 -10 -9 -15 -8 -20 4 -3 9 0 15 8 15 8 0 16 3 18 8 4 10 80 47
95 45 6 0 22 11 35 26 l23 26 -30 -25 -30 -25 24 27 c14 16 27 26 29 23 3 -3
35 23 71 58 36 35 85 76 109 92 23 15 40 30 38 32 -9 9 -67 -29 -128 -84 l-63
-57 60 62 c100 104 206 139 310 102z m-368 -52 c7 -16 11 -28 9 -28 -8 0 -36
58 -35 72 0 9 2 8 6 -2 3 -8 12 -27 20 -42z m508 12 c10 -11 16 -20 13 -20 -3
0 -13 9 -23 20 -10 11 -16 20 -13 20 3 0 13 -9 23 -20z m-678 -42 c7 -24 14
-52 17 -63 4 -11 -3 -2 -14 20 -19 36 -21 37 -16 10 l6 -30 -14 25 c-9 16 -11
27 -4 31 6 4 7 16 3 28 -3 11 -2 21 2 21 5 0 14 -19 20 -42z m92 -108 c0 -8
-7 8 -15 35 -7 28 -13 57 -13 65 0 8 7 -7 15 -35 7 -27 13 -57 13 -65z m446
40 c3 -6 -1 -7 -9 -4 -18 7 -21 14 -7 14 6 0 13 -4 16 -10z m-508 -102 c-21
-14 -42 -4 -38 17 2 11 4 35 4 53 l0 33 23 -48 c18 -35 20 -49 11 -55z m660
45 c-3 -10 -5 -2 -5 17 0 19 2 27 5 18 2 -10 2 -26 0 -35z m-295 -78 c11 -10
10 -6 -8 63 -3 12 -2 22 4 22 5 0 13 -21 17 -46 4 -32 17 -57 43 -87 35 -39
35 -40 7 -20 -61 43 -107 107 -104 146 0 7 7 -6 15 -28 8 -22 20 -44 26 -50z
m-49 27 c3 -32 13 -53 38 -79 28 -30 29 -34 9 -21 -50 30 -88 116 -63 141 9
10 11 6 16 -41z m97 32 c0 -36 46 -97 95 -126 28 -16 39 -26 25 -23 -51 14
-108 55 -124 89 -18 38 -21 76 -6 76 6 0 10 -7 10 -16z m190 -24 c6 -12 21
-20 36 -20 40 0 23 -25 -19 -28 -50 -4 -111 14 -144 43 l-28 24 72 1 c62 0 74
-3 83 -20z m3 -90 c9 0 17 -5 17 -11 0 -14 -53 -2 -102 22 -59 30 -53 39 10
13 31 -13 65 -24 75 -24z m-278 -90 c-3 -5 3 -10 14 -10 12 0 21 5 21 10 0 6
9 10 20 10 11 0 20 -4 20 -10 0 -5 8 -11 18 -11 9 -1 -15 -5 -55 -9 -40 -4
-125 -24 -189 -45 -64 -20 -118 -34 -121 -31 -12 11 10 26 40 27 18 0 41 4 52
9 l20 9 -20 1 c-20 1 -20 1 0 12 54 31 194 61 180 38z m190 -25 l30 -14 -30 6
c-16 3 -41 10 -55 14 l-25 7 25 1 c14 0 39 -6 55 -14z m2 -34 c13 -8 -10 -10
-92 -11 -126 0 -214 -12 -294 -40 -64 -23 -61 -23 -61 -12 0 7 135 52 225 76
33 8 202 -1 222 -13z m12 -37 c10 -9 -45 -3 -59 6 -11 7 -5 8 20 4 19 -4 37
-8 39 -10z m-119 -3 c20 -6 13 -9 -35 -15 -33 -3 -100 -20 -150 -37 -119 -40
-135 -44 -135 -30 0 17 97 60 172 76 70 15 111 17 148 6z m-100 -63 c-14 -6
-42 -17 -63 -26 -20 -8 -43 -22 -50 -30 -10 -12 -6 -12 20 1 55 29 51 18 -7
-18 -61 -38 -75 -42 -66 -20 3 9 0 15 -9 15 -8 0 -15 6 -15 14 0 9 29 24 78
40 103 33 167 47 112 24z m168 -9 c-5 -14 -185 -82 -218 -82 -14 0 -19 -2 -12
-4 9 -3 0 -14 -23 -30 -20 -14 -34 -27 -31 -30 3 -3 17 4 33 15 50 35 213 91
213 73 0 -4 -28 -16 -62 -25 -73 -20 -153 -54 -146 -61 3 -3 17 -1 32 4 14 6
26 7 26 2 0 -4 -16 -12 -35 -18 -19 -6 -33 -7 -29 -2 3 5 1 9 -5 9 -5 0 -13
-4 -16 -10 -3 -5 -10 -10 -15 -10 -10 0 -8 19 3 38 9 13 -3 16 -19 5 -5 -5 2
2 16 15 46 42 195 105 288 121 2 1 2 -4 0 -10z m-172 -164 c-11 -8 -27 -15
-35 -15 -14 0 -14 -2 -1 -10 11 -8 7 -9 -14 -4 -19 5 -27 3 -23 -3 4 -6 0 -13
-8 -17 -8 -3 -17 -1 -20 5 -4 5 13 18 37 28 78 34 92 37 64 16z m44 -49 c0 -2
-21 -9 -48 -15 -26 -5 -56 -13 -67 -17 -14 -5 -17 -4 -10 4 15 16 125 41 125
28z m-80 -46 c-20 -13 -33 -13 -25 0 3 6 14 10 23 10 15 0 15 -2 2 -10z"/>
<path d="M340 3220 c0 -5 31 -9 70 -9 39 1 70 5 70 10 0 5 -31 9 -70 9 -39 0
-70 -4 -70 -10z"/>
<path d="M416 3191 c-7 -11 18 -33 27 -24 4 3 7 12 7 20 0 15 -26 18 -34 4z"/>
<path d="M460 3175 c-10 -12 -9 -16 3 -21 17 -6 37 2 37 16 0 15 -29 19 -40 5z"/>
<path d="M452 3068 c6 -18 28 -21 28 -4 0 9 -7 16 -16 16 -9 0 -14 -5 -12 -12z"/>
<path d="M590 3055 c0 -8 5 -15 10 -15 6 0 10 7 10 15 0 8 -4 15 -10 15 -5 0
-10 -7 -10 -15z"/>
<path d="M494 3026 c-8 -21 3 -36 27 -36 15 0 20 6 17 22 -4 27 -35 37 -44 14z"/>
<path d="M557 3033 c-12 -11 -8 -23 8 -23 8 0 15 7 15 15 0 16 -12 20 -23 8z"/>
<path d="M3017 3224 c-14 -15 -6 -34 14 -34 14 0 19 5 17 17 -3 18 -20 27 -31
17z"/>
<path d="M3070 3220 c0 -5 4 -10 9 -10 6 0 13 5 16 10 3 6 -1 10 -9 10 -9 0
-16 -4 -16 -10z"/>
<path d="M3125 3220 c3 -5 28 -10 56 -10 27 0 49 5 49 10 0 6 -25 10 -56 10
-34 0 -53 -4 -49 -10z"/>
<path d="M3116 3201 c-4 -5 -2 -12 3 -15 5 -4 12 -2 15 3 4 5 2 12 -3 15 -5 4
-12 2 -15 -3z"/>
<path d="M3034 3055 c-7 -18 3 -35 21 -35 21 0 28 19 15 35 -16 19 -29 19 -36
0z"/>
<path d="M2996 3021 c-3 -5 1 -14 8 -20 16 -13 32 2 21 19 -8 12 -22 13 -29 1z"/>
<path d="M2920 2980 c0 -5 5 -10 10 -10 6 0 10 5 10 10 0 6 -4 10 -10 10 -5 0
-10 -4 -10 -10z"/>
<path d="M2427 2854 c-14 -14 -7 -35 11 -32 9 2 17 10 17 17 0 16 -18 25 -28
15z"/>
<path d="M2440 2785 c-10 -12 -9 -16 5 -21 23 -9 40 10 22 25 -11 9 -17 8 -27
-4z"/>
<path d="M2505 2760 c3 -5 8 -10 11 -10 2 0 4 5 4 10 0 6 -5 10 -11 10 -5 0
-7 -4 -4 -10z"/>
<path d="M2366 2691 c-7 -10 22 -37 30 -28 9 8 -3 37 -15 37 -5 0 -12 -4 -15
-9z"/>
<path d="M2416 2681 c-4 -5 -2 -12 3 -15 5 -4 12 -2 15 3 4 5 2 12 -3 15 -5 4
-12 2 -15 -3z"/>
<path d="M2483 2663 c-19 -7 -16 -27 7 -48 25 -22 43 -9 38 26 -3 24 -21 32
-45 22z"/>
<path d="M2255 2640 c-4 -6 -1 -17 5 -26 14 -16 40 -2 40 22 0 16 -36 19 -45
4z"/>
<path d="M2580 2575 c-10 -12 -10 -18 0 -29 16 -20 42 -8 38 17 -4 26 -21 32
-38 12z"/>
<path d="M2162 2544 c4 -21 22 -23 26 -1 2 10 -3 17 -13 17 -10 0 -15 -6 -13
-16z"/>
<path d="M2435 2549 c-10 -15 3 -25 16 -12 7 7 7 13 1 17 -6 3 -14 1 -17 -5z"/>
<path d="M2302 2518 c2 -12 10 -23 18 -23 22 0 19 39 -3 43 -15 3 -18 -1 -15
-20z"/>
<path d="M2535 2480 c-8 -14 3 -30 21 -30 8 0 14 9 14 20 0 21 -24 28 -35 10z"/>
<path d="M2680 2480 c0 -5 5 -10 11 -10 5 0 7 5 4 10 -3 6 -8 10 -11 10 -2 0
-4 -4 -4 -10z"/>
<path d="M2117 2463 c-12 -11 -8 -23 8 -23 8 0 15 7 15 15 0 16 -12 20 -23 8z"/>
<path d="M2436 2423 c-11 -11 -6 -23 9 -23 8 0 15 4 15 9 0 13 -16 22 -24 14z"/>
<path d="M2100 2400 c0 -5 7 -10 15 -10 8 0 15 5 15 10 0 6 -7 10 -15 10 -8 0
-15 -4 -15 -10z"/>
<path d="M2680 2360 c0 -5 5 -10 10 -10 6 0 10 5 10 10 0 6 -4 10 -10 10 -5 0
-10 -4 -10 -10z"/>
<path d="M2627 2294 c-8 -8 1 -24 14 -24 5 0 9 7 9 15 0 15 -12 20 -23 9z"/>
<path d="M2350 1935 c-14 -16 -5 -35 16 -35 15 0 20 35 5 44 -5 3 -14 -1 -21
-9z"/>
<path d="M2250 1876 c0 -9 7 -16 16 -16 17 0 14 22 -4 28 -7 2 -12 -3 -12 -12z"/>
<path d="M2289 1864 c-15 -18 -2 -47 25 -52 11 -3 16 4 16 21 0 34 -23 52 -41
31z"/>
<path d="M2340 1814 c0 -17 22 -14 28 4 2 7 -3 12 -12 12 -9 0 -16 -7 -16 -16z"/>
<path d="M2380 1786 c0 -17 14 -29 23 -20 8 8 -3 34 -14 34 -5 0 -9 -6 -9 -14z"/>
<path d="M2064 2978 l-19 -23 23 19 c21 18 27 26 19 26 -2 0 -12 -10 -23 -22z"/>
<path d="M2135 2960 c-3 -5 -2 -10 4 -10 5 0 13 5 16 10 3 6 2 10 -4 10 -5 0
-13 -4 -16 -10z"/>
<path d="M2099 2923 c-13 -16 -12 -17 4 -4 9 7 17 15 17 17 0 8 -8 3 -21 -13z"/>
<path d="M2039 2863 l-34 -38 38 34 c34 33 42 41 34 41 -2 0 -19 -17 -38 -37z"/>
<path d="M1961 2542 c-21 -31 -41 -94 -23 -77 11 11 53 105 47 105 -2 0 -13
-13 -24 -28z"/>
<path d="M1912 2415 c-14 -31 -15 -48 -3 -41 12 8 32 66 22 66 -4 0 -13 -11
-19 -25z"/>
<path d="M1615 2379 c-4 -6 -5 -12 -2 -15 2 -3 7 2 10 11 7 17 1 20 -8 4z"/>
<path d="M1796 2379 c-23 -64 -33 -169 -16 -169 6 0 10 16 10 35 0 18 5 57 11
85 10 47 6 82 -5 49z"/>
<path d="M1632 2355 c0 -11 4 -31 8 -45 l8 -25 0 25 c0 14 -3 34 -8 45 l-9 20
1 -20z"/>
<path d="M1866 2314 c-9 -36 1 -43 14 -10 12 33 12 36 1 36 -5 0 -12 -12 -15
-26z"/>
<path d="M1720 2320 c0 -5 5 -10 10 -10 6 0 10 5 10 10 0 6 -4 10 -10 10 -5 0
-10 -4 -10 -10z"/>
<path d="M1672 2298 c-19 -19 -15 -48 7 -48 28 0 47 26 31 45 -15 18 -22 19
-38 3z"/>
<path d="M1809 2255 c-6 -40 -4 -53 7 -43 3 3 4 23 2 44 l-3 39 -6 -40z"/>
<path d="M1675 2213 c-3 -10 -2 -19 4 -21 5 -2 7 -10 4 -19 -4 -11 -2 -14 8
-11 8 3 13 11 12 17 -2 6 2 11 7 11 16 0 11 27 -6 34 -21 8 -21 8 -29 -11z"/>
<path d="M1750 2180 c0 -5 5 -10 10 -10 6 0 10 5 10 10 0 6 -4 10 -10 10 -5 0
-10 -4 -10 -10z"/>
<path d="M1789 3103 c-13 -16 -12 -17 4 -4 9 7 17 15 17 17 0 8 -8 3 -21 -13z"/>
<path d="M1110 2985 c-16 -19 0 -19 50 0 l35 13 -36 1 c-21 1 -42 -5 -49 -14z"/>
<path d="M1086 2951 c-28 -9 -52 -23 -54 -29 -6 -18 13 -15 96 14 50 17 84 23
105 19 24 -5 28 -4 17 4 -23 16 -109 12 -164 -8z"/>
<path d="M1175 2889 c-47 -6 -170 -47 -163 -54 2 -2 30 6 63 17 66 23 204 30
285 14 35 -7 43 -6 34 4 -15 15 -153 27 -219 19z"/>
<path d="M1422 2884 c10 -10 20 -15 24 -12 3 4 -5 12 -18 18 -22 12 -22 12 -6
-6z"/>
<path d="M1420 2856 c0 -2 7 -7 16 -10 8 -3 12 -2 9 4 -6 10 -25 14 -25 6z"/>
<path d="M919 2769 l-24 -20 28 17 c15 9 27 18 27 20 0 8 -8 4 -31 -17z"/>
<path d="M1385 2699 c-4 -6 -5 -12 -2 -15 2 -3 7 2 10 11 7 17 1 20 -8 4z"/>
<path d="M950 2550 c-8 -5 -10 -10 -5 -10 6 0 17 5 25 10 8 5 11 10 5 10 -5 0
-17 -5 -25 -10z"/>
<path d="M1017 2199 c-26 -17 -50 -35 -53 -41 -3 -5 19 7 50 28 50 33 63 44
53 44 -2 0 -25 -14 -50 -31z"/>
<path d="M972 2199 c-18 -12 -31 -24 -28 -26 5 -5 66 35 66 43 0 6 -3 5 -38
-17z"/>
<path d="M2150 2260 c-12 -8 -10 -10 8 -10 13 0 20 4 17 10 -7 12 -6 12 -25 0z"/>
<path d="M2075 2250 c-7 -12 2 -12 30 0 19 8 19 9 -2 9 -12 1 -25 -3 -28 -9z"/>
<path d="M2210 2256 c0 -2 7 -6 15 -10 8 -3 15 -1 15 4 0 6 -7 10 -15 10 -8 0
-15 -2 -15 -4z"/>
<path d="M1902 2189 c-18 -12 -31 -23 -29 -26 5 -4 77 36 77 43 0 9 -16 3 -48
-17z"/>
<path d="M2380 2146 c0 -2 14 -14 30 -26 17 -12 30 -19 30 -16 0 2 -13 14 -30
26 -16 12 -30 19 -30 16z"/>
<path d="M1700 1910 c0 -5 5 -10 10 -10 6 0 10 5 10 10 0 6 -4 10 -10 10 -5 0
-10 -4 -10 -10z"/>
<path d="M1675 1850 c-3 -5 -1 -10 4 -10 6 0 11 5 11 10 0 6 -2 10 -4 10 -3 0
-8 -4 -11 -10z"/>
<path d="M1530 1916 c0 -7 7 -19 15 -26 19 -15 47 4 38 26 -7 18 -53 19 -53 0z"/>
<path d="M1329 1690 c10 -5 8 -9 -4 -14 -9 -3 -13 -10 -10 -16 7 -12 26 -14
24 -2 -4 21 3 23 21 7 11 -10 20 -13 20 -7 0 6 -5 14 -10 17 -6 4 -8 9 -6 13
2 4 -7 8 -21 9 -16 0 -21 -2 -14 -7z"/>
<path d="M1821 1516 c-9 -10 -8 -15 1 -18 20 -8 37 2 31 18 -7 18 -17 18 -32
0z"/>
<path d="M2120 1516 c0 -2 8 -10 18 -17 15 -13 16 -12 3 4 -13 16 -21 21 -21
13z"/>
<path d="M1766 1468 c-21 -29 -11 -37 15 -11 13 13 17 23 11 27 -6 3 -18 -4
-26 -16z"/>
<path d="M1855 1480 c-3 -5 1 -10 9 -10 9 0 16 5 16 10 0 6 -4 10 -9 10 -6 0
-13 -4 -16 -10z"/>
<path d="M1541 1311 c-10 -7 -16 -32 -18 -78 -4 -59 -2 -66 10 -51 8 10 16 15
19 13 3 -3 8 16 11 42 6 55 2 67 -12 32 l-10 -24 0 27 c-1 16 6 31 17 37 9 6
13 10 7 11 -5 0 -17 -4 -24 -9z"/>
<path d="M1490 1271 c0 -10 -3 -26 -6 -35 -3 -9 -2 -16 4 -16 12 0 22 59 10
66 -4 3 -8 -4 -8 -15z"/>
<path d="M1622 1240 c0 -14 2 -19 5 -12 2 6 2 18 0 25 -3 6 -5 1 -5 -13z"/>
<path d="M2070 1325 c0 -9 5 -15 11 -13 6 2 11 8 11 13 0 5 -5 11 -11 13 -6 2
-11 -4 -11 -13z"/>
<path d="M1778 1153 c-28 -7 -21 -21 7 -15 14 2 25 8 25 13 0 9 -4 10 -32 2z"/>
<path d="M1701 1129 c-13 -5 -22 -11 -20 -14 8 -7 49 7 49 16 0 5 -1 9 -2 8
-2 0 -14 -5 -27 -10z"/>
<path d="M2089 3715 c-3 -2 -30 -11 -60 -20 l-54 -15 45 5 c25 3 68 8 95 11
28 3 61 1 75 -5 22 -8 18 -10 -30 -11 l-55 -2 70 -13 c39 -7 102 -25 141 -39
75 -27 94 -31 94 -18 0 9 -103 50 -147 58 -18 4 -33 12 -33 19 0 18 -45 35
-94 35 -23 0 -45 -2 -47 -5z"/>
<path d="M1835 3690 c-21 -11 -66 -25 -99 -30 -87 -16 -148 -37 -258 -91 -121
-59 -101 -71 39 -23 139 47 301 74 483 81 144 4 161 3 237 -19 83 -25 102 -21
36 7 -50 21 -222 55 -277 55 -34 0 -44 3 -40 14 3 8 -4 16 -18 20 -39 10 -62
7 -103 -14z m80 -9 c-16 -4 -29 -12 -28 -19 3 -12 -58 -27 -79 -19 -7 3 -1 6
15 6 26 1 40 21 15 21 -9 0 -8 4 2 10 8 5 35 9 60 9 40 -1 42 -2 15 -8z m-125
-39 c0 -4 -29 -13 -64 -20 -55 -10 -132 -32 -231 -66 -11 -4 -4 2 15 13 49 28
119 51 203 66 40 7 73 14 75 14 1 1 2 -2 2 -7z"/>
<path d="M2115 3604 c118 -27 121 -28 108 -14 -13 14 -83 29 -133 29 -29 -1
-25 -3 25 -15z"/>
<path d="M2133 3577 c18 -15 18 -15 0 -20 -17 -4 -17 -4 1 -12 13 -6 21 -4 24
3 2 7 11 12 20 12 25 0 2 18 -33 25 -28 6 -29 5 -12 -8z"/>
<path d="M2370 3573 c0 -5 25 -16 55 -26 30 -9 85 -35 122 -58 102 -62 139
-83 128 -72 -17 17 -157 109 -200 130 -47 24 -105 38 -105 26z"/>
<path d="M1565 3518 c-16 -5 -39 -13 -50 -17 -11 -5 -65 -23 -120 -41 -164
-53 -287 -122 -388 -219 -32 -31 -68 -69 -80 -86 -11 -17 10 -1 49 36 38 36
89 79 114 96 111 76 293 149 444 179 84 16 102 29 74 51 -9 7 -24 7 -43 1z"/>
<path d="M2299 3501 c80 -45 121 -77 173 -134 26 -28 51 -48 55 -43 11 12
-124 136 -183 167 -70 38 -110 46 -45 10z"/>
<path d="M1930 3450 c0 -5 7 -10 15 -10 9 0 30 -7 48 -16 18 -9 28 -12 22 -6
-16 18 -85 43 -85 32z"/>
<path d="M2411 3390 c57 -51 77 -51 22 0 -23 22 -47 40 -54 40 -6 0 8 -18 32
-40z"/>
<path d="M2480 3423 c0 -5 23 -21 51 -38 27 -16 60 -41 72 -54 19 -21 15 -20
-28 8 l-50 32 38 -35 c33 -30 77 -45 77 -26 0 9 -49 54 -99 89 -44 31 -61 38
-61 24z"/>
<path d="M2395 3376 c17 -13 32 -22 35 -19 7 6 -39 43 -54 43 -6 0 3 -11 19
-24z"/>
<path d="M2745 3348 c22 -26 41 -45 44 -42 3 2 -15 24 -38 47 l-44 42 38 -47z"/>
<path d="M2836 3348 c15 -20 30 -35 33 -32 3 2 -10 19 -28 37 l-34 32 29 -37z"/>
<path d="M1813 3344 c21 -14 41 -23 44 -20 6 6 -56 46 -72 46 -5 0 8 -12 28
-26z"/>
<path d="M1475 3350 c-3 -5 -2 -10 4 -10 5 0 13 5 16 10 3 6 2 10 -4 10 -5 0
-13 -4 -16 -10z"/>
<path d="M1415 3340 c-19 -8 -19 -9 2 -9 12 -1 25 4 28 9 7 12 -2 12 -30 0z"/>
<path d="M1930 3346 c0 -2 7 -7 16 -10 8 -3 12 -2 9 4 -6 10 -25 14 -25 6z"/>
<path d="M1360 3320 c-8 -5 -10 -10 -5 -10 6 0 17 5 25 10 8 5 11 10 5 10 -5
0 -17 -5 -25 -10z"/>
<path d="M2350 3283 c0 -5 11 -20 25 -33 14 -13 25 -19 25 -13 0 5 -11 20 -25
33 -14 13 -25 19 -25 13z"/>
<path d="M1835 3270 c3 -5 11 -10 16 -10 6 0 7 5 4 10 -3 6 -11 10 -16 10 -6
0 -7 -4 -4 -10z"/>
<path d="M2688 3220 c39 -60 61 -104 83 -164 15 -43 18 -47 18 -22 1 38 -53
146 -96 193 l-34 38 29 -45z"/>
<path d="M870 3070 c0 -5 5 -10 11 -10 5 0 7 5 4 10 -3 6 -8 10 -11 10 -2 0
-4 -4 -4 -10z"/>
<path d="M855 3030 c-3 -5 1 -10 10 -10 9 0 13 5 10 10 -3 6 -8 10 -10 10 -2
0 -7 -4 -10 -10z"/>
<path d="M845 2990 c-3 -5 1 -10 9 -10 9 0 16 5 16 10 0 6 -4 10 -9 10 -6 0
-13 -4 -16 -10z"/>
</g>
</svg>
